<svg width="35" height="35" viewBox="0 0 40 40" fill="none" xmlns="http://www.w3.org/2000/svg">
<path d="M31.9603 7.72725C30.8239 6.59092 28.9816 6.59092 27.8453 7.72724L19.7656 15.8069L11.686 7.72725C10.5497 6.59092 8.70732 6.59092 7.571 7.72725C6.43467 8.86357 6.43467 10.7059 7.571 11.8422L15.6506 19.9219L7.57099 28.0015C6.43467 29.1378 6.43467 30.9802 7.57099 32.1165C8.70732 33.2528 10.5497 33.2528 11.686 32.1165L19.7656 24.0369L27.8453 32.1165C28.9816 33.2528 30.8239 33.2528 31.9603 32.1165C33.0966 30.9802 33.0966 29.1378 31.9603 28.0015L23.8806 19.9219L31.9603 11.8422C33.0966 10.7059 33.0966 8.86357 31.9603 7.72725Z" fill="#424242"/>
</svg>