<svg width="35" height="35" viewBox="0 0 40 40" fill="none" xmlns="http://www.w3.org/2000/svg">
<path d="M20.0313 23.8179C21.534 24.6766 23.2514 25.3206 25.1834 25.3206C30.5503 25.3206 34.8437 21.0272 34.8437 15.6603C34.8437 10.2935 30.5503 6 25.1834 6C19.8166 6 15.5231 10.2935 15.5231 15.6603C15.5231 17.5924 16.1671 19.3098 17.0258 20.8125L7.50271 30.3356C6.67279 31.1655 6.67279 32.5111 7.50271 33.341V33.341C8.33264 34.171 9.67822 34.171 10.5081 33.341L20.0313 23.8179ZM19.8166 15.6603C19.8166 12.6549 22.178 10.2935 25.1834 10.2935C28.1889 10.2935 30.5503 12.6549 30.5503 15.6603C30.5503 18.6658 28.1889 21.0272 25.1834 21.0272C22.178 21.0272 19.8166 18.6658 19.8166 15.6603Z" fill="#424242"/>
</svg>